<mxfile host="app.diagrams.net" modified="2022-08-09T14:45:25.238Z" agent="5.0 (Windows NT 10.0; Win64; x64) AppleWebKit/537.36 (KHTML, like Gecko) Chrome/104.0.0.0 Safari/537.36" etag="Dd3PhFOOVzHFfRCFLgmW" version="20.2.3" type="github" pages="2">
  <diagram id="HXNxVL0AcPgF9Telcvqg" name="单体">
    <mxGraphModel dx="1422" dy="762" grid="1" gridSize="10" guides="1" tooltips="1" connect="1" arrows="1" fold="1" page="1" pageScale="1" pageWidth="850" pageHeight="1100" math="0" shadow="0">
      <root>
        <mxCell id="0" />
        <mxCell id="1" parent="0" />
        <mxCell id="MELr4ZPMH8CRBj1yXyiO-2" value="App" style="rounded=0;whiteSpace=wrap;html=1;fillColor=#ffe6cc;strokeColor=#d79b00;" vertex="1" parent="1">
          <mxGeometry x="320" y="163" width="90" height="30" as="geometry" />
        </mxCell>
        <mxCell id="MELr4ZPMH8CRBj1yXyiO-3" value="Web" style="rounded=0;whiteSpace=wrap;html=1;fillColor=#ffe6cc;strokeColor=#d79b00;" vertex="1" parent="1">
          <mxGeometry x="430" y="163" width="90" height="30" as="geometry" />
        </mxCell>
        <mxCell id="MELr4ZPMH8CRBj1yXyiO-5" value="" style="rounded=0;whiteSpace=wrap;html=1;fillColor=#ffe6cc;strokeColor=#d79b00;" vertex="1" parent="1">
          <mxGeometry x="320" y="314" width="200" height="130" as="geometry" />
        </mxCell>
        <mxCell id="MELr4ZPMH8CRBj1yXyiO-6" value="WEB应用" style="rounded=0;whiteSpace=wrap;html=1;fillColor=#f8cecc;strokeColor=#b85450;" vertex="1" parent="1">
          <mxGeometry x="361" y="324" width="120" height="30" as="geometry" />
        </mxCell>
        <mxCell id="MELr4ZPMH8CRBj1yXyiO-7" value="Manager应用" style="rounded=0;whiteSpace=wrap;html=1;fillColor=#f8cecc;strokeColor=#b85450;" vertex="1" parent="1">
          <mxGeometry x="361" y="364" width="120" height="30" as="geometry" />
        </mxCell>
        <mxCell id="MELr4ZPMH8CRBj1yXyiO-8" value="业务逻辑(Service)" style="rounded=0;whiteSpace=wrap;html=1;fillColor=#f8cecc;strokeColor=#b85450;" vertex="1" parent="1">
          <mxGeometry x="361" y="404" width="120" height="30" as="geometry" />
        </mxCell>
        <mxCell id="MELr4ZPMH8CRBj1yXyiO-9" value="" style="endArrow=classic;html=1;rounded=0;" edge="1" parent="1">
          <mxGeometry width="50" height="50" relative="1" as="geometry">
            <mxPoint x="364.5" y="193" as="sourcePoint" />
            <mxPoint x="365" y="233" as="targetPoint" />
          </mxGeometry>
        </mxCell>
        <mxCell id="MELr4ZPMH8CRBj1yXyiO-10" value="" style="endArrow=classic;html=1;rounded=0;" edge="1" parent="1">
          <mxGeometry width="50" height="50" relative="1" as="geometry">
            <mxPoint x="479.5" y="193" as="sourcePoint" />
            <mxPoint x="480" y="233" as="targetPoint" />
          </mxGeometry>
        </mxCell>
        <mxCell id="MELr4ZPMH8CRBj1yXyiO-11" value="Nginx" style="rounded=0;whiteSpace=wrap;html=1;fillColor=#ffe6cc;strokeColor=#d79b00;" vertex="1" parent="1">
          <mxGeometry x="320" y="233" width="200" height="40" as="geometry" />
        </mxCell>
        <mxCell id="MELr4ZPMH8CRBj1yXyiO-12" value="" style="endArrow=classic;html=1;rounded=0;" edge="1" parent="1">
          <mxGeometry width="50" height="50" relative="1" as="geometry">
            <mxPoint x="420" y="273" as="sourcePoint" />
            <mxPoint x="420" y="313" as="targetPoint" />
          </mxGeometry>
        </mxCell>
        <mxCell id="MELr4ZPMH8CRBj1yXyiO-13" value="Redis" style="rounded=0;whiteSpace=wrap;html=1;fillColor=#ffe6cc;strokeColor=#d79b00;" vertex="1" parent="1">
          <mxGeometry x="560" y="405" width="110" height="40" as="geometry" />
        </mxCell>
        <mxCell id="MELr4ZPMH8CRBj1yXyiO-14" value="MySql" style="rounded=0;whiteSpace=wrap;html=1;fillColor=#ffe6cc;strokeColor=#d79b00;" vertex="1" parent="1">
          <mxGeometry x="321" y="483" width="200" height="40" as="geometry" />
        </mxCell>
        <mxCell id="MELr4ZPMH8CRBj1yXyiO-15" value="" style="endArrow=classic;html=1;rounded=0;entryX=0;entryY=0.5;entryDx=0;entryDy=0;" edge="1" parent="1">
          <mxGeometry width="50" height="50" relative="1" as="geometry">
            <mxPoint x="521" y="423" as="sourcePoint" />
            <mxPoint x="560" y="424" as="targetPoint" />
          </mxGeometry>
        </mxCell>
        <mxCell id="MELr4ZPMH8CRBj1yXyiO-16" value="" style="endArrow=classic;html=1;rounded=0;entryX=0.5;entryY=0;entryDx=0;entryDy=0;" edge="1" parent="1" target="MELr4ZPMH8CRBj1yXyiO-14">
          <mxGeometry width="50" height="50" relative="1" as="geometry">
            <mxPoint x="420" y="444" as="sourcePoint" />
            <mxPoint x="470" y="394" as="targetPoint" />
          </mxGeometry>
        </mxCell>
        <mxCell id="MELr4ZPMH8CRBj1yXyiO-17" value="" style="endArrow=classic;html=1;rounded=0;exitX=0.5;exitY=1;exitDx=0;exitDy=0;entryX=1;entryY=0.5;entryDx=0;entryDy=0;" edge="1" parent="1" target="MELr4ZPMH8CRBj1yXyiO-14">
          <mxGeometry width="50" height="50" relative="1" as="geometry">
            <mxPoint x="615" y="444" as="sourcePoint" />
            <mxPoint x="690" y="473" as="targetPoint" />
            <Array as="points">
              <mxPoint x="615" y="503" />
            </Array>
          </mxGeometry>
        </mxCell>
      </root>
    </mxGraphModel>
  </diagram>
  <diagram id="jiLbfOS8dKGr1F0JadfK" name="Page-2">
    <mxGraphModel dx="1422" dy="762" grid="1" gridSize="10" guides="1" tooltips="1" connect="1" arrows="1" fold="1" page="1" pageScale="1" pageWidth="850" pageHeight="1100" math="0" shadow="0">
      <root>
        <mxCell id="0" />
        <mxCell id="1" parent="0" />
        <mxCell id="Rifq70johGX3qpaXoGG2-1" value="App" style="rounded=0;whiteSpace=wrap;html=1;fillColor=#ffe6cc;strokeColor=#d79b00;" vertex="1" parent="1">
          <mxGeometry x="320" y="41" width="90" height="30" as="geometry" />
        </mxCell>
        <mxCell id="Rifq70johGX3qpaXoGG2-2" value="Web" style="rounded=0;whiteSpace=wrap;html=1;fillColor=#ffe6cc;strokeColor=#d79b00;" vertex="1" parent="1">
          <mxGeometry x="430" y="41" width="90" height="30" as="geometry" />
        </mxCell>
        <mxCell id="Rifq70johGX3qpaXoGG2-3" value="" style="rounded=0;whiteSpace=wrap;html=1;fillColor=#ffe6cc;strokeColor=#d79b00;" vertex="1" parent="1">
          <mxGeometry x="320" y="192" width="200" height="130" as="geometry" />
        </mxCell>
        <mxCell id="Rifq70johGX3qpaXoGG2-4" value="WEB应用" style="rounded=0;whiteSpace=wrap;html=1;fillColor=#f8cecc;strokeColor=#b85450;" vertex="1" parent="1">
          <mxGeometry x="361" y="202" width="120" height="30" as="geometry" />
        </mxCell>
        <mxCell id="Rifq70johGX3qpaXoGG2-5" value="Manager应用" style="rounded=0;whiteSpace=wrap;html=1;fillColor=#f8cecc;strokeColor=#b85450;" vertex="1" parent="1">
          <mxGeometry x="361" y="242" width="120" height="30" as="geometry" />
        </mxCell>
        <mxCell id="Rifq70johGX3qpaXoGG2-6" value="业务逻辑(Service)" style="rounded=0;whiteSpace=wrap;html=1;fillColor=#f8cecc;strokeColor=#b85450;" vertex="1" parent="1">
          <mxGeometry x="361" y="282" width="120" height="30" as="geometry" />
        </mxCell>
        <mxCell id="Rifq70johGX3qpaXoGG2-7" value="" style="endArrow=classic;html=1;rounded=0;" edge="1" parent="1">
          <mxGeometry width="50" height="50" relative="1" as="geometry">
            <mxPoint x="364.5" y="71" as="sourcePoint" />
            <mxPoint x="365" y="111" as="targetPoint" />
          </mxGeometry>
        </mxCell>
        <mxCell id="Rifq70johGX3qpaXoGG2-8" value="" style="endArrow=classic;html=1;rounded=0;" edge="1" parent="1">
          <mxGeometry width="50" height="50" relative="1" as="geometry">
            <mxPoint x="479.5" y="71" as="sourcePoint" />
            <mxPoint x="480" y="111" as="targetPoint" />
          </mxGeometry>
        </mxCell>
        <mxCell id="Rifq70johGX3qpaXoGG2-9" value="Nginx" style="rounded=0;whiteSpace=wrap;html=1;fillColor=#ffe6cc;strokeColor=#d79b00;" vertex="1" parent="1">
          <mxGeometry x="320" y="111" width="200" height="40" as="geometry" />
        </mxCell>
        <mxCell id="Rifq70johGX3qpaXoGG2-10" value="" style="endArrow=classic;html=1;rounded=0;" edge="1" parent="1">
          <mxGeometry width="50" height="50" relative="1" as="geometry">
            <mxPoint x="420" y="151" as="sourcePoint" />
            <mxPoint x="420" y="191" as="targetPoint" />
          </mxGeometry>
        </mxCell>
        <mxCell id="Rifq70johGX3qpaXoGG2-11" value="Redis" style="rounded=0;whiteSpace=wrap;html=1;fillColor=#ffe6cc;strokeColor=#d79b00;" vertex="1" parent="1">
          <mxGeometry x="560" y="282" width="110" height="40" as="geometry" />
        </mxCell>
        <mxCell id="Rifq70johGX3qpaXoGG2-12" value="MySql" style="rounded=0;whiteSpace=wrap;html=1;fillColor=#ffe6cc;strokeColor=#d79b00;" vertex="1" parent="1">
          <mxGeometry x="321" y="361" width="200" height="40" as="geometry" />
        </mxCell>
        <mxCell id="Rifq70johGX3qpaXoGG2-13" value="" style="endArrow=classic;html=1;rounded=0;entryX=0;entryY=0.5;entryDx=0;entryDy=0;" edge="1" parent="1" target="Rifq70johGX3qpaXoGG2-11">
          <mxGeometry width="50" height="50" relative="1" as="geometry">
            <mxPoint x="521" y="301" as="sourcePoint" />
            <mxPoint x="571" y="251" as="targetPoint" />
          </mxGeometry>
        </mxCell>
        <mxCell id="Rifq70johGX3qpaXoGG2-14" value="" style="endArrow=classic;html=1;rounded=0;entryX=0.5;entryY=0;entryDx=0;entryDy=0;" edge="1" parent="1" target="Rifq70johGX3qpaXoGG2-12">
          <mxGeometry width="50" height="50" relative="1" as="geometry">
            <mxPoint x="420" y="322" as="sourcePoint" />
            <mxPoint x="470" y="272" as="targetPoint" />
          </mxGeometry>
        </mxCell>
        <mxCell id="Rifq70johGX3qpaXoGG2-15" value="" style="endArrow=classic;html=1;rounded=0;exitX=0.5;exitY=1;exitDx=0;exitDy=0;entryX=1;entryY=0.5;entryDx=0;entryDy=0;" edge="1" parent="1" source="Rifq70johGX3qpaXoGG2-11" target="Rifq70johGX3qpaXoGG2-12">
          <mxGeometry width="50" height="50" relative="1" as="geometry">
            <mxPoint x="640" y="401" as="sourcePoint" />
            <mxPoint x="690" y="351" as="targetPoint" />
            <Array as="points">
              <mxPoint x="615" y="381" />
            </Array>
          </mxGeometry>
        </mxCell>
      </root>
    </mxGraphModel>
  </diagram>
</mxfile>
